<?xml version="1.0" encoding="UTF-8" standalone="no"?><!DOCTYPE svg PUBLIC "-//W3C//DTD SVG 1.1//EN" "http://www.w3.org/Graphics/SVG/1.1/DTD/svg11.dtd"><svg width="100%" height="100%" viewBox="0 0 334 122" version="1.1" xmlns="http://www.w3.org/2000/svg" xmlns:xlink="http://www.w3.org/1999/xlink" xml:space="preserve" xmlns:serif="http://www.serif.com/" style="fill-rule:evenodd;clip-rule:evenodd;stroke-linecap:round;stroke-linejoin:round;stroke-miterlimit:1.5;"><rect x="182.732" y="0.375" width="103.503" height="121.057" style="fill:#ebebeb;fill-opacity:0;stroke:#000;stroke-width:0.75px;"/><rect x="0.375" y="0.375" width="103.503" height="103.503" style="fill:#ebebeb;fill-opacity:0;stroke:#000;stroke-width:0.75px;"/><rect x="189.65" y="36.872" width="89.667" height="23.507" style="fill:#ebebeb;fill-opacity:0;stroke:#000;stroke-width:0.75px;"/><g><rect x="189.65" y="90.122" width="89.667" height="23.507" style="fill:#ebebeb;fill-opacity:0;stroke:#000;stroke-width:0.75px;"/><g transform="matrix(0.75,0,0,0.75,91.4889,29.7098)"><text x="146.862px" y="91.637px" style="font-family:'CourierNewPSMT', 'Courier New', monospace;font-size:12px;">test harness</text><text x="146.862px" y="103.637px" style="font-family:'CourierNewPSMT', 'Courier New', monospace;font-size:12px;">(subprocess)</text></g></g><path d="M230.479,85.465l-2.25,4.5l-2.25,-4.5c1.125,1.125 3.375,1.125 4.5,0Z"/><path d="M228.229,60.361l-0,26.004" style="fill:none;stroke:#000;stroke-width:0.75px;"/><text x="35.537px" y="11.431px" style="font-family:'CourierNewPSMT', 'Courier New', monospace;font-size:9px;">bowtie</text><text x="123.63px" y="40.671px" style="font-family:'CourierNewPSMT', 'Courier New', monospace;font-size:9px;">commands</text><g transform="matrix(0.75,0,0,0.75,186.664,-28.241)"><text x="146.862px" y="91.637px" style="font-family:'CourierNewPSMT', 'Courier New', monospace;font-size:12px;">measure</text><text x="146.862px" y="103.637px" style="font-family:'CourierNewPSMT', 'Courier New', monospace;font-size:12px;">perf</text><text x="146.862px" y="115.637px" style="font-family:'CourierNewPSMT', 'Courier New', monospace;font-size:12px;">data</text></g><text x="244.004px" y="75.147px" style="font-family:'CourierNewPSMT', 'Courier New', monospace;font-size:9px;">results</text><g transform="matrix(0.75,0,0,0.75,77.1852,1.85034)"><text x="146.862px" y="91.637px" style="font-family:'CourierNewPSMT', 'Courier New', monospace;font-size:12px;">relayed</text><text x="146.862px" y="103.637px" style="font-family:'CourierNewPSMT', 'Courier New', monospace;font-size:12px;">command</text></g><path d="M184.744,42.027l4.5,2.25l-4.5,2.25c1.125,-1.125 1.125,-3.375 0,-4.5Z"/><path d="M104.245,44.277l81.399,-0" style="fill:none;stroke:#000;stroke-width:0.75px;"/><g transform="matrix(0.75,0,0,0.75,7.61787,-7.75053)"><text x="159.535px" y="91.637px" style="font-family:'CourierNewPSMT', 'Courier New', monospace;font-size:12px;">results</text><text x="148.733px" y="103.637px" style="font-family:'CourierNewPSMT', 'Courier New', monospace;font-size:12px;">(with perf</text><text x="166.736px" y="115.637px" style="font-family:'CourierNewPSMT', 'Courier New', monospace;font-size:12px;">data)</text></g><path d="M108.304,51.129l-4.5,2.25l4.5,2.25c-1.125,-1.125 -1.125,-3.375 0,-4.5Z"/><path d="M107.404,53.379l82.28,0" style="fill:none;stroke:#000;stroke-width:0.75px;"/><text x="201.664px" y="49.023px" style="font-family:'CourierNewPSMT', 'Courier New', monospace;font-size:9px;">perf wrapper</text><g transform="matrix(0.75,0,0,0.75,82.1278,-57.297)"><text x="154.404px" y="91.637px" style="font-family:'CourierNewPSMT', 'Courier New', monospace;font-size:12px;">implementation</text><text x="179.608px" y="103.637px" style="font-family:'CourierNewPSMT', 'Courier New', monospace;font-size:12px;">(Docker</text><text x="168.806px" y="115.637px" style="font-family:'CourierNewPSMT', 'Courier New', monospace;font-size:12px;">container)</text></g><path d="M244.29,64.589l-2.25,-4.5l-2.25,4.5c1.125,-1.125 3.375,-1.125 4.5,-0Z"/><path d="M242.04,63.689l-0,26.337" style="fill:none;stroke:#000;stroke-width:0.75px;"/><path d="M283.165,58.396l-3.739,-3.367l4.937,-0.97c-1.384,0.785 -1.983,2.953 -1.198,4.337Z"/><path d="M279.571,42.187c16.41,-9.619 21.499,17.326 3.325,13.801" style="fill:none;stroke:#000;stroke-width:0.75px;"/></svg>