<?xml version="1.0" encoding="UTF-8" standalone="no"?><!DOCTYPE svg PUBLIC "-//W3C//DTD SVG 1.1//EN" "http://www.w3.org/Graphics/SVG/1.1/DTD/svg11.dtd"><svg width="100%" height="100%" viewBox="0 0 334 149" version="1.1" xmlns="http://www.w3.org/2000/svg" xmlns:xlink="http://www.w3.org/1999/xlink" xml:space="preserve" xmlns:serif="http://www.serif.com/" style="fill-rule:evenodd;clip-rule:evenodd;stroke-linecap:round;stroke-linejoin:round;stroke-miterlimit:1.5;"><rect x="182.732" y="0.375" width="103.503" height="147.784" style="fill:#ebebeb;fill-opacity:0;stroke:#fff;stroke-width:0.75px;"/><rect x="0.375" y="26.964" width="103.503" height="32.6" style="fill:#ebebeb;fill-opacity:0;stroke:#fff;stroke-width:0.75px;"/><rect x="189.65" y="31.594" width="89.667" height="23.507" style="fill:#ebebeb;fill-opacity:0;stroke:#45a154;stroke-width:0.75px;"/><rect x="189.65" y="84.844" width="89.667" height="23.507" style="fill:#ebebeb;fill-opacity:0;stroke:#fff;stroke-width:0.75px;"/><g transform="matrix(0.75,0,0,0.75,91.4889,24.432)"><text x="146.862px" y="91.637px" style="font-family:'CourierNewPSMT', 'Courier New', monospace;font-size:12px;fill:#fff;stroke:#000;stroke-opacity:0;stroke-width:1px;stroke-linecap:butt;stroke-miterlimit:2;">test harness</text><text x="146.862px" y="103.637px" style="font-family:'CourierNewPSMT', 'Courier New', monospace;font-size:12px;fill:#45a154;stroke:#000;stroke-opacity:0;stroke-width:1px;stroke-linecap:butt;stroke-miterlimit:2;">(subprocess)</text></g><path d="M230.479,80.187l-2.25,4.5l-2.25,-4.5c1.125,1.125 3.375,1.125 4.5,0Z" style="fill:#45a154;"/><path d="M228.229,55.083l-0,26.004" style="fill:none;stroke:#45a154;stroke-width:0.75px;"/><text x="35.537px" y="43.662px" style="font-family:'CourierNewPSMT', 'Courier New', monospace;font-size:9px;fill:#fff;">bowtie</text><text x="123.63px" y="35.393px" style="font-family:'CourierNewPSMT', 'Courier New', monospace;font-size:9px;fill:#fff;">commands</text><g transform="matrix(0.75,0,0,0.75,186.664,-33.5187)"><text x="146.862px" y="91.637px" style="font-family:'CourierNewPSMT', 'Courier New', monospace;font-size:12px;fill:#45a154;">measure</text><text x="146.862px" y="103.637px" style="font-family:'CourierNewPSMT', 'Courier New', monospace;font-size:12px;fill:#45a154;">perf</text><text x="146.862px" y="115.637px" style="font-family:'CourierNewPSMT', 'Courier New', monospace;font-size:12px;fill:#45a154;">data</text></g><text x="244.004px" y="69.869px" style="font-family:'CourierNewPSMT', 'Courier New', monospace;font-size:9px;fill:#45a154;">results</text><g transform="matrix(0.75,0,0,0.75,77.1852,-3.42743)"><text x="146.862px" y="91.637px" style="font-family:'CourierNewPSMT', 'Courier New', monospace;font-size:12px;fill:#45a154;">relayed</text><text x="146.862px" y="103.637px" style="font-family:'CourierNewPSMT', 'Courier New', monospace;font-size:12px;fill:#45a154;">command</text></g><path d="M184.744,36.749l4.5,2.25l-4.5,2.25c1.125,-1.125 1.125,-3.375 0,-4.5Z" style="fill:#fff;"/><path d="M104.245,38.999l81.399,0" style="fill:none;stroke:#fff;stroke-width:0.75px;"/><g transform="matrix(0.75,0,0,0.75,7.61787,-13.0283)"><text x="159.535px" y="91.637px" style="font-family:'CourierNewPSMT', 'Courier New', monospace;font-size:12px;fill:#fff;">results</text><text x="148.733px" y="103.637px" style="font-family:'CourierNewPSMT', 'Courier New', monospace;font-size:12px;fill:#45a154;">(with perf</text><text x="166.736px" y="115.637px" style="font-family:'CourierNewPSMT', 'Courier New', monospace;font-size:12px;fill:#45a154;">data)</text></g><path d="M108.304,45.851l-4.5,2.25l4.5,2.25c-1.125,-1.125 -1.125,-3.375 0,-4.5Z" style="fill:#fff;"/><path d="M107.404,48.101l82.28,0" style="fill:none;stroke:#fff;stroke-width:0.75px;"/><text x="201.664px" y="43.745px" style="font-family:'CourierNewPSMT', 'Courier New', monospace;font-size:9px;fill:#45a154;">perf wrapper</text><g transform="matrix(0.75,0,0,0.75,80.8747,-55.1256)"><text x="154.404px" y="91.637px" style="font-family:'CourierNewPSMT', 'Courier New', monospace;font-size:12px;fill:#fff;">implementation</text><text x="172.407px" y="103.637px" style="font-family:'CourierNewPSMT', 'Courier New', monospace;font-size:12px;fill:#fff;">container</text></g><path d="M244.29,59.311l-2.25,-4.5l-2.25,4.5c1.125,-1.125 3.375,-1.125 4.5,-0Z" style="fill:#45a154;"/><path d="M242.04,58.411l-0,26.337" style="fill:none;stroke:#45a154;stroke-width:0.75px;"/><path d="M283.165,53.119l-3.739,-3.367l4.937,-0.971c-1.384,0.785 -1.983,2.954 -1.198,4.338Z" style="fill:#45a154;"/><path d="M279.571,36.909c16.41,-9.618 21.499,17.326 3.325,13.801" style="fill:none;stroke:#45a154;stroke-width:0.75px;"/><rect x="189.65" y="116.713" width="89.667" height="23.507" style="fill:#ebebeb;fill-opacity:0;stroke:#fff;stroke-width:0.75px;"/><text x="196.555px" y="130.033px" style="font-family:'CourierNewPSMT', 'Courier New', monospace;font-size:9px;fill:#fff;">implementation</text><path d="M234.484,108.955l-0,7.37" style="fill:none;stroke:#fff;stroke-width:0.75px;"/></svg>