<?xml version="1.0" encoding="UTF-8" standalone="no"?><!DOCTYPE svg PUBLIC "-//W3C//DTD SVG 1.1//EN" "http://www.w3.org/Graphics/SVG/1.1/DTD/svg11.dtd"><svg width="100%" height="100%" viewBox="0 0 287 70" version="1.1" xmlns="http://www.w3.org/2000/svg" xmlns:xlink="http://www.w3.org/1999/xlink" xml:space="preserve" xmlns:serif="http://www.serif.com/" style="fill-rule:evenodd;clip-rule:evenodd;stroke-linecap:round;stroke-linejoin:round;stroke-miterlimit:1.5;"><rect x="182.442" y="0.375" width="103.503" height="68.625" style="fill:#ebebeb;fill-opacity:0;stroke:#000;stroke-width:0.75px;"/><rect x="189.607" y="36.872" width="89.667" height="23.507" style="fill:#ebebeb;fill-opacity:0;stroke:#000;stroke-width:0.75px;"/><text x="201.591px" y="50.193px" style="font-family:'CourierNewPSMT', 'Courier New', monospace;font-size:9px;">test harness</text><text x="123.587px" y="40.671px" style="font-family:'CourierNewPSMT', 'Courier New', monospace;font-size:9px;">commands</text><path d="M184.7,42.027l4.5,2.25l-4.5,2.25c1.125,-1.125 1.125,-3.375 0,-4.5Z"/><path d="M104.201,44.277l81.399,-0" style="fill:none;stroke:#000;stroke-width:0.75px;"/><text x="127.225px" y="60.977px" style="font-family:'CourierNewPSMT', 'Courier New', monospace;font-size:9px;">results</text><path d="M108.26,51.129l-4.5,2.25l4.5,2.25c-1.125,-1.125 -1.125,-3.375 0,-4.5Z"/><path d="M107.36,53.379l82.28,0" style="fill:none;stroke:#000;stroke-width:0.75px;"/><g transform="matrix(0.75,0,0,0.75,82.084,-57.297)"><text x="154.404px" y="91.637px" style="font-family:'CourierNewPSMT', 'Courier New', monospace;font-size:12px;">implementation</text><text x="179.608px" y="103.637px" style="font-family:'CourierNewPSMT', 'Courier New', monospace;font-size:12px;">(Docker</text><text x="168.806px" y="115.637px" style="font-family:'CourierNewPSMT', 'Courier New', monospace;font-size:12px;">container)</text></g><rect x="0.375" y="31.916" width="103.503" height="32.6" style="fill:#ebebeb;fill-opacity:0;stroke:#000;stroke-width:0.75px;"/><text x="35.537px" y="48.613px" style="font-family:'CourierNewPSMT', 'Courier New', monospace;font-size:9px;">bowtie</text></svg>